<svg width="147" height="28" viewBox="0 0 147 28" fill="none" xmlns="http://www.w3.org/2000/svg">
<g clip-path="url(#clip0_2174_171)">
<path d="M18.8415 27.0001H0.229492V24.7321L1.02149 24.6241C2.28149 24.4081 2.60549 24.1201 2.60549 23.0041V6.58806C2.60549 5.58006 2.35349 5.25606 1.20149 5.07606L0.229492 4.93206V2.66406H10.9935V4.93206L10.0575 5.07606C8.90549 5.25606 8.65349 5.54406 8.65349 6.55206V22.7881C8.65349 23.7601 8.86949 24.1561 10.0215 24.1561H13.7295C15.2055 24.1561 15.6375 23.6881 16.1775 21.6721L16.6095 20.0521L19.3455 20.1601C19.3455 21.9601 19.1295 25.8481 18.8415 27.0001Z" fill="#FF0000"/>
<path d="M30.5491 27.0002H20.8291V24.7682L21.5851 24.6242C22.8811 24.4082 22.9531 24.0122 22.9531 23.2202V13.9322C22.9531 12.7802 22.7731 12.3122 20.9371 12.2042V10.0802C22.7731 9.10813 26.0491 8.38813 28.5691 8.35213C28.4971 10.9802 28.4971 13.0682 28.4971 15.0842V23.2202C28.4971 24.1562 28.7491 24.4442 29.8651 24.6242L30.5491 24.7682V27.0002ZM28.3891 3.81613C28.3891 5.58013 27.1651 6.69613 25.4011 6.69613C23.9611 6.69613 22.5931 5.61613 22.5931 3.78013C22.5931 1.90813 23.9611 0.828125 25.4731 0.828125C27.0211 0.828125 28.3891 1.83613 28.3891 3.81613Z" fill="#FF0000"/>
<path d="M43.5901 26.6759C42.4021 27.1439 41.1781 27.4679 39.5581 27.4679C37.3981 27.4679 36.1381 26.9279 35.5621 26.2799C34.5901 25.2719 34.3021 24.2279 34.3021 21.8519V12.4199H32.2861V10.0079L33.4741 9.64791C34.2301 9.43191 34.7701 9.21591 35.1301 8.85591C35.5261 8.49591 35.8501 7.99191 36.2821 6.08391L36.5341 5.00391H39.8461V9.46791H43.0141V12.4199H39.8461V21.2039C39.8461 22.6079 39.9181 23.6879 40.3861 24.1559C40.7101 24.4799 41.2861 24.6599 41.9701 24.6599C42.4021 24.6599 43.1581 24.5879 43.5901 24.4439V26.6759Z" fill="#FF0000"/>
<path d="M55.93 26.6759C54.742 27.1439 53.518 27.4679 51.898 27.4679C49.738 27.4679 48.478 26.9279 47.902 26.2799C46.93 25.2719 46.642 24.2279 46.642 21.8519V12.4199H44.626V10.0079L45.814 9.64791C46.57 9.43191 47.11 9.21591 47.47 8.85591C47.866 8.49591 48.19 7.99191 48.622 6.08391L48.874 5.00391H52.186V9.46791H55.354V12.4199H52.186V21.2039C52.186 22.6079 52.258 23.6879 52.726 24.1559C53.05 24.4799 53.626 24.6599 54.31 24.6599C54.742 24.6599 55.498 24.5879 55.93 24.4439V26.6759Z" fill="#FF0000"/>
<path d="M66.7216 26.9996H57.0016V24.7676L57.7216 24.6236C59.0176 24.4076 59.1256 24.0476 59.1256 23.2196V6.22759C59.1256 5.03959 58.7296 4.57159 56.8936 4.46359V2.37559C58.6936 1.40359 62.2216 0.719593 64.7416 0.683594C64.7056 3.49159 64.6696 7.59559 64.6696 10.2236V23.2196C64.6696 24.1556 64.8496 24.4436 65.9656 24.6236L66.7216 24.7676V26.9996Z" fill="#FF0000"/>
<path d="M84.8126 25.8476C83.2286 26.8196 80.9246 27.4676 78.0806 27.4676C71.1686 27.4676 68.6846 23.0756 68.6846 18.2876C68.6846 11.7356 72.5366 8.35156 78.2246 8.35156C83.2646 8.35156 85.4246 11.4476 85.4246 16.0196C85.4246 16.5236 85.3886 17.6396 85.3166 18.1076H74.5526V18.5756C74.5526 22.5716 77.1086 24.1196 80.2406 24.1196C82.3646 24.1196 83.8046 23.7236 84.8126 23.4356V25.8476ZM74.5526 15.9476L79.5206 15.8036C80.2046 15.7676 80.4206 15.5156 80.4206 14.9036C80.4206 12.3476 79.7006 11.1236 77.9006 11.1236C75.8846 11.1236 74.6966 12.5996 74.5526 15.9476Z" fill="#FF0000"/>
<path d="M103.417 27.0001H94.957V24.7321L95.533 24.5881C96.397 24.4081 96.793 24.0121 97.153 22.9681L104.569 2.66406H110.293L117.601 23.1121C117.961 24.0841 118.213 24.4441 119.041 24.5881L119.725 24.7321V27.0001H108.673V24.7321L110.041 24.5881C110.905 24.4801 111.193 24.2641 111.193 23.6521C111.193 23.2561 111.049 22.7521 110.869 22.1401L109.897 19.2601H101.941L101.041 22.0321C100.825 22.7161 100.717 23.2561 100.717 23.6521C100.717 24.2281 101.077 24.4801 101.941 24.5881L103.417 24.7321V27.0001ZM102.877 16.4521H108.997C107.017 10.6201 106.369 8.78406 105.937 7.27206C105.469 8.78406 104.893 10.5121 102.877 16.4521Z" fill="#FF0000"/>
<path d="M131.074 26.9996H120.814V24.7676L121.57 24.6236C122.866 24.4076 122.938 24.0476 122.938 23.2196V13.8236C122.938 12.6716 122.65 12.2396 120.922 12.1316V10.0796C122.686 9.14356 125.962 8.38756 128.518 8.35156V12.4556C129.13 9.82756 130.498 8.35156 132.73 8.35156C133.126 8.35156 133.558 8.35156 133.954 8.45956C134.098 8.81956 134.098 9.28756 134.098 9.75556C134.098 10.6916 133.99 12.1316 133.774 12.7796C133.018 12.6716 132.406 12.5996 131.83 12.5996C130.39 12.5996 129.274 12.9956 128.518 13.6796V23.1476C128.518 24.0116 128.734 24.4436 129.742 24.5876L131.074 24.7676V26.9996Z" fill="#FF0000"/>
<path d="M146.422 26.6759C145.234 27.1439 144.01 27.4679 142.39 27.4679C140.23 27.4679 138.97 26.9279 138.394 26.2799C137.422 25.2719 137.134 24.2279 137.134 21.8519V12.4199H135.118V10.0079L136.306 9.64791C137.062 9.43191 137.602 9.21591 137.962 8.85591C138.358 8.49591 138.682 7.99191 139.114 6.08391L139.366 5.00391H142.678V9.46791H145.846V12.4199H142.678V21.2039C142.678 22.6079 142.75 23.6879 143.218 24.1559C143.542 24.4799 144.118 24.6599 144.802 24.6599C145.234 24.6599 145.99 24.5879 146.422 24.4439V26.6759Z" fill="#FF0000"/>
</g>
<defs>
<clipPath id="clip0_2174_171">
<rect width="147" height="28" fill="white"/>
</clipPath>
</defs>
</svg>
