<svg width="147" height="28" viewBox="0 0 147 28" fill="none" xmlns="http://www.w3.org/2000/svg">
<path d="M18.8415 27H0.229492V24.732L1.02149 24.624C2.28149 24.408 2.60549 24.12 2.60549 23.004V6.58796C2.60549 5.57996 2.35349 5.25596 1.20149 5.07596L0.229492 4.93196V2.66396H10.9935V4.93196L10.0575 5.07596C8.90549 5.25596 8.65349 5.54396 8.65349 6.55196V22.788C8.65349 23.76 8.86949 24.156 10.0215 24.156H13.7295C15.2055 24.156 15.6375 23.688 16.1775 21.672L16.6095 20.052L19.3455 20.16C19.3455 21.96 19.1295 25.848 18.8415 27Z" fill="#FF728F"/>
<path d="M30.5494 27H20.8294V24.768L21.5854 24.624C22.8814 24.408 22.9534 24.012 22.9534 23.22V13.932C22.9534 12.78 22.7734 12.312 20.9374 12.204V10.08C22.7734 9.10796 26.0494 8.38796 28.5694 8.35196C28.4974 10.98 28.4974 13.068 28.4974 15.084V23.22C28.4974 24.156 28.7494 24.444 29.8654 24.624L30.5494 24.768V27ZM28.3894 3.81596C28.3894 5.57996 27.1654 6.69596 25.4014 6.69596C23.9614 6.69596 22.5934 5.61596 22.5934 3.77996C22.5934 1.90796 23.9614 0.827958 25.4734 0.827958C27.0214 0.827958 28.3894 1.83596 28.3894 3.81596Z" fill="#FF728F"/>
<path d="M43.5901 26.676C42.4021 27.144 41.1781 27.468 39.5581 27.468C37.3981 27.468 36.1381 26.928 35.5621 26.28C34.5901 25.272 34.3021 24.228 34.3021 21.852V12.42H32.2861V10.008L33.4741 9.64796C34.2301 9.43196 34.7701 9.21596 35.1301 8.85596C35.5261 8.49596 35.8501 7.99196 36.2821 6.08396L36.5341 5.00396H39.8461V9.46796H43.0141V12.42H39.8461V21.204C39.8461 22.608 39.9181 23.688 40.3861 24.156C40.7101 24.48 41.2861 24.66 41.9701 24.66C42.4021 24.66 43.1581 24.588 43.5901 24.444V26.676Z" fill="#FF728F"/>
<path d="M55.9299 26.676C54.7419 27.144 53.5179 27.468 51.8979 27.468C49.7379 27.468 48.4779 26.928 47.9019 26.28C46.9299 25.272 46.6419 24.228 46.6419 21.852V12.42H44.6259V10.008L45.8139 9.64796C46.5699 9.43196 47.1099 9.21596 47.4699 8.85596C47.8659 8.49596 48.1899 7.99196 48.6219 6.08396L48.8739 5.00396H52.1859V9.46796H55.3539V12.42H52.1859V21.204C52.1859 22.608 52.2579 23.688 52.7259 24.156C53.0499 24.48 53.6259 24.66 54.3099 24.66C54.7419 24.66 55.4979 24.588 55.9299 24.444V26.676Z" fill="#FF728F"/>
<path d="M66.7218 27H57.0018V24.768L57.7218 24.624C59.0178 24.408 59.1258 24.048 59.1258 23.22V6.22796C59.1258 5.03996 58.7298 4.57196 56.8938 4.46396V2.37596C58.6938 1.40396 62.2218 0.719959 64.7418 0.68396C64.7058 3.49196 64.6698 7.59596 64.6698 10.224V23.22C64.6698 24.156 64.8498 24.444 65.9658 24.624L66.7218 24.768V27Z" fill="#FF728F"/>
<path d="M84.8126 25.848C83.2286 26.82 80.9246 27.468 78.0806 27.468C71.1686 27.468 68.6846 23.076 68.6846 18.288C68.6846 11.736 72.5366 8.35196 78.2246 8.35196C83.2646 8.35196 85.4246 11.448 85.4246 16.02C85.4246 16.524 85.3886 17.64 85.3166 18.108H74.5526V18.576C74.5526 22.572 77.1086 24.12 80.2406 24.12C82.3646 24.12 83.8046 23.724 84.8126 23.436V25.848ZM74.5526 15.948L79.5206 15.804C80.2046 15.768 80.4206 15.516 80.4206 14.904C80.4206 12.348 79.7006 11.124 77.9006 11.124C75.8846 11.124 74.6966 12.6 74.5526 15.948Z" fill="#FF728F"/>
<path d="M103.417 27H94.957V24.732L95.533 24.588C96.397 24.408 96.793 24.012 97.153 22.968L104.569 2.66396H110.293L117.601 23.112C117.961 24.084 118.213 24.444 119.041 24.588L119.725 24.732V27H108.673V24.732L110.041 24.588C110.905 24.48 111.193 24.264 111.193 23.652C111.193 23.256 111.049 22.752 110.869 22.14L109.897 19.26H101.941L101.041 22.032C100.825 22.716 100.717 23.256 100.717 23.652C100.717 24.228 101.077 24.48 101.941 24.588L103.417 24.732V27ZM102.877 16.452H108.997C107.017 10.62 106.369 8.78396 105.937 7.27196C105.469 8.78396 104.893 10.512 102.877 16.452Z" fill="#FF728F"/>
<path d="M131.074 27H120.814V24.768L121.57 24.624C122.866 24.408 122.938 24.048 122.938 23.22V13.824C122.938 12.672 122.65 12.24 120.922 12.132V10.08C122.686 9.14396 125.962 8.38796 128.518 8.35196V12.456C129.13 9.82796 130.498 8.35196 132.73 8.35196C133.126 8.35196 133.558 8.35196 133.954 8.45996C134.098 8.81996 134.098 9.28796 134.098 9.75596C134.098 10.692 133.99 12.132 133.774 12.78C133.018 12.672 132.406 12.6 131.83 12.6C130.39 12.6 129.274 12.996 128.518 13.68V23.148C128.518 24.012 128.734 24.444 129.742 24.588L131.074 24.768V27Z" fill="#FF728F"/>
<path d="M146.422 26.676C145.234 27.144 144.01 27.468 142.39 27.468C140.23 27.468 138.97 26.928 138.394 26.28C137.422 25.272 137.134 24.228 137.134 21.852V12.42H135.118V10.008L136.306 9.64796C137.062 9.43196 137.602 9.21596 137.962 8.85596C138.358 8.49596 138.682 7.99196 139.114 6.08396L139.366 5.00396H142.678V9.46796H145.846V12.42H142.678V21.204C142.678 22.608 142.75 23.688 143.218 24.156C143.542 24.48 144.118 24.66 144.802 24.66C145.234 24.66 145.99 24.588 146.422 24.444V26.676Z" fill="#FF728F"/>
</svg>
